HIERARCHY
ROOT Hips
{
    OFFSET 0.000000 0.000000 0.000000
    CHANNELS 6 Xposition Yposition Zposition Zrotation Xrotation Yrotation
    JOINT Spine
    {
        OFFSET -0.000000 14.517291 0.000000
        CHANNELS 3 Zrotation Xrotation Yrotation
        JOINT Spine1
        {
            OFFSET -0.000000 37.558300 0.000000
            CHANNELS 3 Zrotation Xrotation Yrotation
            JOINT Neck
            {
                OFFSET -0.000000 37.404057 3.400369
                CHANNELS 3 Zrotation Xrotation Yrotation
                JOINT Head
                {
                    OFFSET -0.000000 24.785618 -3.540803
                    CHANNELS 3 Zrotation Xrotation Yrotation
                    End Site
                    {
                        OFFSET -0.000000 35.408028 0.000000
                    }
                }
            }
            JOINT LeftShoulder
            {
                OFFSET 6.992933 33.973492 -0.192664
                CHANNELS 3 Zrotation Xrotation Yrotation
                JOINT LeftArm
                {
                    OFFSET 21.527611 0.000000 0.000000
                    CHANNELS 3 Zrotation Xrotation Yrotation
                    JOINT LeftForeArm
                    {
                        OFFSET 56.353916 0.000000 0.000000
                        CHANNELS 3 Zrotation Xrotation Yrotation
                        JOINT LeftHand
                        {
                            OFFSET 47.774071 0.000000 0.000000
                            CHANNELS 3 Zrotation Xrotation Yrotation
                            End Site
                            {
                                OFFSET 26.556021 0.000000 0.000000
                            }
                        }
                    }
                }
            }
            JOINT RightShoulder
            {
                OFFSET -7.065357 33.973492 -0.192664
                CHANNELS 3 Zrotation Xrotation Yrotation
                JOINT RightArm
                {
                    OFFSET -21.527611 0.000000 0.000000
                    CHANNELS 3 Zrotation Xrotation Yrotation
                    JOINT RightForeArm
                    {
                        OFFSET -56.353916 0.000000 0.000000
                        CHANNELS 3 Zrotation Xrotation Yrotation
                        JOINT RightHand
                        {
                            OFFSET -47.774071 0.000000 0.000000
                            CHANNELS 3 Zrotation Xrotation Yrotation
                            End Site
                            {
                                OFFSET -26.556021 0.000000 0.000000
                            }
                        }
                    }
                }
            }
        }
    }
    JOINT LeftUpLeg
    {
        OFFSET 17.704014 0.000000 0.000000
        CHANNELS 3 Zrotation Xrotation Yrotation
        JOINT LeftLeg
        {
            OFFSET -0.000000 -81.181816 0.000000
            CHANNELS 3 Zrotation Xrotation Yrotation
            JOINT LeftFoot
            {
                OFFSET -0.000000 -62.821102 0.000000
                CHANNELS 3 Zrotation Xrotation Yrotation
                JOINT LeftToeBase
                {
                    OFFSET -0.000000 -11.507608 26.556021
                    CHANNELS 3 Zrotation Xrotation Yrotation
                    End Site
                    {
                        OFFSET -0.000000 0.000000 7.081605
                    }
                }
            }
        }
    }
    JOINT RightUpLeg
    {
        OFFSET -17.704014 0.000000 0.000000
        CHANNELS 3 Zrotation Xrotation Yrotation
        JOINT RightLeg
        {
            OFFSET -0.000000 -81.181816 0.000000
            CHANNELS 3 Zrotation Xrotation Yrotation
            JOINT RightFoot
            {
                OFFSET -0.000000 -62.821102 0.000000
                CHANNELS 3 Zrotation Xrotation Yrotation
                JOINT RightToeBase
                {
                    OFFSET -0.000000 -11.507608 26.556021
                    CHANNELS 3 Zrotation Xrotation Yrotation
                    End Site
                    {
                        OFFSET -0.000000 0.000000 7.081605
                    }
                }
            }
        }
    }
}
MOTION
Frames:    5
Frame Time:    0.008333
-4.017386    159.144821    -22.167978    -1.199731    -2.347803    -23.843315    6.276077    0.985927    7.739492    -3.983207    -1.551348    2.547646    11.330933    -7.854482    2.984998    -4.233087    12.346660    0.480183    0.810252    8.208640    -13.942364    -33.971481    15.768663    -45.538857    23.791435    -41.439442    -56.091244    -19.409748    -26.887917    -27.310459    -12.976768    -8.166324    7.572428    44.883736    -22.155344    90.209618    -22.004276    -47.182911    64.957092    28.161016    -27.184853    42.203163    13.324152    -14.106897    -1.147935    -9.175410    9.813897    -2.899636    -6.531720    5.063884    32.789806    0.000000    0.000000    0.000000    -6.749741    10.816076    -11.642699    4.122029    13.695860    -3.687953    4.580904    -17.014997    -17.829716    0.000000    0.000000    0.000000    
-4.029121    159.143387    -22.156630    -1.200886    -2.357199    -23.848194    6.279135    0.994769    7.730602    -3.988507    -1.545514    2.544987    11.357893    -7.866318    2.999714    -4.276001    12.365449    0.487645    0.806841    8.207308    -13.925817    -33.958187    15.786106    -45.559006    23.815956    -41.448814    -56.071800    -19.426636    -26.884304    -27.331596    -12.964951    -8.177568    7.579711    44.917652    -22.140711    90.204514    -21.945408    -47.165756    65.017860    28.171600    -27.174980    42.217384    13.324819    -14.087903    -1.148005    -9.177798    9.807825    -2.893684    -6.517819    5.063783    32.779251    0.000000    0.000000    0.000000    -6.751191    10.817427    -11.622109    4.161215    13.700459    -3.766323    4.551350    -17.032501    -17.901276    0.000000    0.000000    0.000000    
-4.042085    159.144760    -22.151257    -1.197974    -2.357367    -23.851812    6.260779    0.990767    7.726956    -3.960807    -1.540791    2.544163    11.369582    -7.854712    3.006794    -4.311779    12.350096    0.491758    0.798767    8.217474    -13.924876    -33.955536    15.782362    -45.573120    23.820648    -41.448933    -56.075989    -19.422846    -26.880072    -27.343445    -12.961070    -8.164419    7.586568    44.963593    -22.146502    90.223854    -21.914186    -47.126915    65.050835    28.137556    -27.149204    42.209927    13.328075    -14.081463    -1.145273    -9.174703    9.805853    -2.928866    -6.535272    5.048510    32.802311    0.000000    0.000000    0.000000    -6.750972    10.816714    -11.614298    4.157865    13.707295    -3.774632    4.570664    -17.045649    -17.898252    0.000000    0.000000    0.000000    
-4.050638    159.144135    -22.145760    -1.194627    -2.354663    -23.854889    6.257397    0.992455    7.722091    -3.955042    -1.539807    2.542672    11.374693    -7.859502    3.010859    -4.326270    12.351052    0.493783    0.796657    8.221095    -13.909221    -33.952454    15.788437    -45.599689    23.839445    -41.437584    -56.071388    -19.414598    -26.858412    -27.353701    -12.952848    -8.155725    7.579596    44.945442    -22.128983    90.220779    -21.956446    -47.144291    65.029381    28.141294    -27.142021    42.242672    13.325794    -14.082396    -1.134219    -9.165398    9.811709    -2.941071    -6.542686    5.042279    32.800491    0.000000    0.000000    0.000000    -6.751318    10.816166    -11.611011    4.159412    13.703146    -3.778013    4.566496    -17.046625    -17.908245    0.000000    0.000000    0.000000    
-4.062164    159.144592    -22.136868    -1.192910    -2.356622    -23.857239    6.244725    0.993483    7.719150    -3.933664    -1.539138    2.541974    11.367353    -7.844181    3.012082    -4.330901    12.327789    0.497237    0.787790    8.223895    -13.914776    -33.942303    15.798341    -45.602852    23.861475    -41.437149    -56.068790    -19.420250    -26.845160    -27.360189    -12.952528    -8.152297    7.587094    44.969383    -22.127180    90.208130    -21.927198    -47.123291    65.074516    28.144699    -27.118742    42.246456    13.325897    -14.075523    -1.130877    -9.163109    9.812122    -2.944340    -6.536139    5.039171    32.796974    0.000000    0.000000    0.000000    -6.748524    10.819784    -11.621911    4.148474    13.705592    -3.808778    4.590942    -17.041983    -17.866156    0.000000    0.000000    0.000000    
